<svg width="104" height="74" viewBox="0 0 104 74" fill="none" xmlns="http://www.w3.org/2000/svg">
<rect y="0.803223" width="104" height="72.9628" rx="6" fill="#EADFFB"/>
<path d="M32.4176 23.7055H27.4034L20.1733 28.3504V33.1799L26.9773 28.8333H27.1477V52.7964H32.4176V23.7055ZM38.4784 47.3987H52.3563V52.7964H57.3847V47.3987H61.1063V43.0663H57.3847V23.7055H50.8222L38.4784 43.2083V47.3987ZM52.4131 43.0663H43.8761V42.839L52.1858 29.6714H52.4131V43.0663ZM64.9014 52.7964H70.0435V45.4668L71.9185 43.464L78.5946 52.7964H84.7452L75.7963 40.3958L84.248 30.9782H78.2395L70.3986 39.7424H70.0435V23.7055H64.9014V52.7964Z" fill="#3E4581"/>
</svg>
