<svg width="131" height="17" viewBox="0 0 131 17" fill="none" xmlns="http://www.w3.org/2000/svg">
<path d="M4.46538 0.721581H6.22538V16.1216H4.20137V2.92158L0.923375 3.88958L0.417375 2.12958L4.46538 0.721581ZM13.8692 6.04558C15.4092 6.04558 16.6778 6.52958 17.6752 7.49758C18.6725 8.45091 19.1712 9.69025 19.1712 11.2156C19.1712 12.7409 18.6725 13.9876 17.6752 14.9556C16.6778 15.9236 15.4092 16.4076 13.8692 16.4076C12.3145 16.4076 11.0385 15.9236 10.0412 14.9556C9.0585 13.9876 8.56717 12.7409 8.56717 11.2156C8.56717 10.0276 8.87517 9.00091 9.49117 8.13558L14.4412 0.721581H16.7732L13.1432 6.08958C13.4658 6.06025 13.7078 6.04558 13.8692 6.04558ZM11.4932 13.5696C12.1092 14.1562 12.9012 14.4496 13.8692 14.4496C14.8372 14.4496 15.6218 14.1562 16.2232 13.5696C16.8392 12.9682 17.1472 12.1836 17.1472 11.2156C17.1472 10.2476 16.8392 9.47025 16.2232 8.88358C15.6218 8.29691 14.8372 8.00358 13.8692 8.00358C12.8865 8.00358 12.0945 8.29691 11.4932 8.88358C10.8918 9.47025 10.5912 10.2476 10.5912 11.2156C10.5912 12.1836 10.8918 12.9682 11.4932 13.5696ZM22.0214 16.3636C21.6254 16.3636 21.288 16.2242 21.0094 15.9456C20.7307 15.6669 20.5914 15.3296 20.5914 14.9336C20.5914 14.5376 20.7307 14.2002 21.0094 13.9216C21.288 13.6429 21.6254 13.5036 22.0214 13.5036C22.432 13.5036 22.7694 13.6429 23.0334 13.9216C23.312 14.2002 23.4514 14.5376 23.4514 14.9336C23.4514 15.3296 23.312 15.6669 23.0334 15.9456C22.7694 16.2242 22.432 16.3636 22.0214 16.3636ZM25.501 16.1216V14.4496L30.935 8.90558C32.387 7.45358 33.113 6.20691 33.113 5.16558C33.113 4.30025 32.849 3.62558 32.321 3.14158C31.793 2.65758 31.1476 2.41558 30.385 2.41558C28.933 2.41558 27.877 3.10491 27.217 4.48358L25.501 3.47158C25.985 2.47425 26.6523 1.71891 27.503 1.20558C28.3683 0.692247 29.3216 0.43558 30.363 0.43558C31.6536 0.43558 32.7756 0.860914 33.729 1.71158C34.6823 2.56225 35.159 3.70625 35.159 5.14358C35.159 6.69825 34.2423 8.39225 32.409 10.2256L28.471 14.1416H35.445V16.1216H25.501ZM47.0685 16.1216H44.6925L39.6765 10.9076V16.1216H37.7625V0.721581H39.6765V9.98358L44.4285 5.12158H46.8925L41.6345 10.4456L47.0685 16.1216ZM59.3204 7.72158H60.4364V16.1216H59.5364L55.2164 9.84558V16.1216H54.1004V7.72158H55.0004L59.3204 13.9856V7.72158ZM62.8573 13.6016C62.9613 14.1376 63.2053 14.5536 63.5893 14.8496C63.9813 15.1456 64.4613 15.2936 65.0293 15.2936C65.8213 15.2936 66.3973 15.0016 66.7573 14.4176L67.6453 14.9216C67.0613 15.8256 66.1813 16.2776 65.0053 16.2776C64.0533 16.2776 63.2773 15.9816 62.6773 15.3896C62.0853 14.7896 61.7893 14.0336 61.7893 13.1216C61.7893 12.2176 62.0813 11.4656 62.6653 10.8656C63.2493 10.2656 64.0053 9.96558 64.9333 9.96558C65.8133 9.96558 66.5293 10.2776 67.0813 10.9016C67.6413 11.5176 67.9213 12.2616 67.9213 13.1336C67.9213 13.2856 67.9093 13.4416 67.8853 13.6016H62.8573ZM64.9333 10.9496C64.3733 10.9496 63.9093 11.1096 63.5413 11.4296C63.1733 11.7416 62.9453 12.1616 62.8573 12.6896H66.8653C66.7773 12.1216 66.5533 11.6896 66.1933 11.3936C65.8333 11.0976 65.4133 10.9496 64.9333 10.9496ZM75.955 10.1216H77.047L75.187 16.1216H74.119L72.715 11.6816L71.311 16.1216H70.243L68.383 10.1216H69.475L70.795 14.6816L72.211 10.1216H73.219L74.635 14.6936L75.955 10.1216ZM86.0653 8.77758H82.3453V11.5016H85.9093V12.5576H82.3453V16.1216H81.2293V7.72158H86.0653V8.77758ZM92.3728 15.3656C91.7568 15.9736 91.0088 16.2776 90.1288 16.2776C89.2488 16.2776 88.5008 15.9736 87.8848 15.3656C87.2768 14.7576 86.9728 14.0096 86.9728 13.1216C86.9728 12.2336 87.2768 11.4856 87.8848 10.8776C88.5008 10.2696 89.2488 9.96558 90.1288 9.96558C91.0088 9.96558 91.7568 10.2696 92.3728 10.8776C92.9888 11.4856 93.2968 12.2336 93.2968 13.1216C93.2968 14.0096 92.9888 14.7576 92.3728 15.3656ZM90.1288 15.2576C90.7288 15.2576 91.2328 15.0536 91.6408 14.6456C92.0488 14.2376 92.2528 13.7296 92.2528 13.1216C92.2528 12.5136 92.0488 12.0056 91.6408 11.5976C91.2328 11.1896 90.7288 10.9856 90.1288 10.9856C89.5368 10.9856 89.0368 11.1896 88.6288 11.5976C88.2208 12.0056 88.0168 12.5136 88.0168 13.1216C88.0168 13.7296 88.2208 14.2376 88.6288 14.6456C89.0368 15.0536 89.5368 15.2576 90.1288 15.2576ZM94.5276 16.1216V7.36158H95.5716V16.1216H94.5276ZM97.1643 16.1216V7.36158H98.2083V16.1216H97.1643ZM104.865 15.3656C104.249 15.9736 103.501 16.2776 102.621 16.2776C101.741 16.2776 100.993 15.9736 100.377 15.3656C99.769 14.7576 99.465 14.0096 99.465 13.1216C99.465 12.2336 99.769 11.4856 100.377 10.8776C100.993 10.2696 101.741 9.96558 102.621 9.96558C103.501 9.96558 104.249 10.2696 104.865 10.8776C105.481 11.4856 105.789 12.2336 105.789 13.1216C105.789 14.0096 105.481 14.7576 104.865 15.3656ZM102.621 15.2576C103.221 15.2576 103.725 15.0536 104.133 14.6456C104.541 14.2376 104.745 13.7296 104.745 13.1216C104.745 12.5136 104.541 12.0056 104.133 11.5976C103.725 11.1896 103.221 10.9856 102.621 10.9856C102.029 10.9856 101.529 11.1896 101.121 11.5976C100.713 12.0056 100.509 12.5136 100.509 13.1216C100.509 13.7296 100.713 14.2376 101.121 14.6456C101.529 15.0536 102.029 15.2576 102.621 15.2576ZM113.853 10.1216H114.945L113.085 16.1216H112.017L110.613 11.6816L109.209 16.1216H108.141L106.281 10.1216H107.373L108.693 14.6816L110.109 10.1216H111.117L112.533 14.6936L113.853 10.1216ZM116.517 13.6016C116.621 14.1376 116.865 14.5536 117.249 14.8496C117.641 15.1456 118.121 15.2936 118.689 15.2936C119.481 15.2936 120.057 15.0016 120.417 14.4176L121.305 14.9216C120.721 15.8256 119.841 16.2776 118.665 16.2776C117.713 16.2776 116.937 15.9816 116.337 15.3896C115.745 14.7896 115.449 14.0336 115.449 13.1216C115.449 12.2176 115.741 11.4656 116.325 10.8656C116.909 10.2656 117.665 9.96558 118.593 9.96558C119.473 9.96558 120.189 10.2776 120.741 10.9016C121.301 11.5176 121.581 12.2616 121.581 13.1336C121.581 13.2856 121.569 13.4416 121.545 13.6016H116.517ZM118.593 10.9496C118.033 10.9496 117.569 11.1096 117.201 11.4296C116.833 11.7416 116.605 12.1616 116.517 12.6896H120.525C120.437 12.1216 120.213 11.6896 119.853 11.3936C119.493 11.0976 119.073 10.9496 118.593 10.9496ZM123.826 11.1296C124.17 10.3856 124.794 10.0136 125.698 10.0136V11.1056C125.186 11.0816 124.746 11.2176 124.378 11.5136C124.01 11.8096 123.826 12.2856 123.826 12.9416V16.1216H122.782V10.1216H123.826V11.1296ZM127.396 11.7416C127.396 11.9736 127.512 12.1616 127.744 12.3056C127.976 12.4416 128.256 12.5536 128.584 12.6416C128.912 12.7216 129.24 12.8176 129.568 12.9296C129.896 13.0336 130.176 13.2176 130.408 13.4816C130.64 13.7376 130.756 14.0696 130.756 14.4776C130.756 15.0216 130.544 15.4576 130.12 15.7856C129.704 16.1136 129.168 16.2776 128.512 16.2776C127.928 16.2776 127.428 16.1496 127.012 15.8936C126.596 15.6376 126.3 15.2976 126.124 14.8736L127.024 14.3576C127.12 14.6456 127.3 14.8736 127.564 15.0416C127.828 15.2096 128.144 15.2936 128.512 15.2936C128.856 15.2936 129.14 15.2296 129.364 15.1016C129.588 14.9656 129.7 14.7576 129.7 14.4776C129.7 14.2456 129.584 14.0616 129.352 13.9256C129.12 13.7816 128.84 13.6696 128.512 13.5896C128.184 13.5016 127.856 13.4016 127.528 13.2896C127.2 13.1776 126.92 12.9936 126.688 12.7376C126.456 12.4816 126.34 12.1536 126.34 11.7536C126.34 11.2336 126.54 10.8056 126.94 10.4696C127.348 10.1336 127.856 9.96558 128.464 9.96558C128.952 9.96558 129.384 10.0776 129.76 10.3016C130.144 10.5176 130.432 10.8216 130.624 11.2136L129.748 11.7056C129.532 11.1936 129.104 10.9376 128.464 10.9376C128.168 10.9376 127.916 11.0096 127.708 11.1536C127.5 11.2896 127.396 11.4856 127.396 11.7416Z" fill="#3E4581"/>
</svg>
