<svg width="127" height="81" viewBox="0 0 127 81" fill="none" xmlns="http://www.w3.org/2000/svg">
<g filter="url(#filter0_i_36_20513)">
<rect width="120" height="66" rx="33" fill="white"/>
</g>
<g filter="url(#filter1_d_36_20513)">
<rect x="62" y="8" width="50" height="50" rx="25" fill="url(#paint0_linear_36_20513)"/>
<rect x="62" y="8" width="50" height="50" rx="25" fill="url(#paint1_linear_36_20513)"/>
</g>
<path d="M97 32.9998L91.9713 28.833L91.9713 32.1664L77 32.1664L77 33.8331L91.9713 33.8331L91.9713 37.1665L97 32.9998Z" fill="white"/>
<path d="M20 33.1667L25.0287 37.3335L25.0287 34.0001L40 34.0001L40 32.3334L25.0287 32.3334L25.0287 29L20 33.1667Z" fill="url(#paint2_linear_36_20513)"/>
<defs>
<filter id="filter0_i_36_20513" x="0" y="0" width="120" height="66" filterUnits="userSpaceOnUse" color-interpolation-filters="sRGB">
<feFlood flood-opacity="0" result="BackgroundImageFix"/>
<feBlend mode="normal" in="SourceGraphic" in2="BackgroundImageFix" result="shape"/>
<feColorMatrix in="SourceAlpha" type="matrix" values="0 0 0 0 0 0 0 0 0 0 0 0 0 0 0 0 0 0 127 0" result="hardAlpha"/>
<feOffset dy="1"/>
<feComposite in2="hardAlpha" operator="arithmetic" k2="-1" k3="1"/>
<feColorMatrix type="matrix" values="0 0 0 0 0 0 0 0 0 0 0 0 0 0 0 0 0 0 0.25 0"/>
<feBlend mode="normal" in2="shape" result="effect1_innerShadow_36_20513"/>
</filter>
<filter id="filter1_d_36_20513" x="47" y="1" width="80" height="80" filterUnits="userSpaceOnUse" color-interpolation-filters="sRGB">
<feFlood flood-opacity="0" result="BackgroundImageFix"/>
<feColorMatrix in="SourceAlpha" type="matrix" values="0 0 0 0 0 0 0 0 0 0 0 0 0 0 0 0 0 0 127 0" result="hardAlpha"/>
<feOffset dy="8"/>
<feGaussianBlur stdDeviation="7.5"/>
<feColorMatrix type="matrix" values="0 0 0 0 0.282118 0 0 0 0 0.282118 0 0 0 0 0.541667 0 0 0 0.08 0"/>
<feBlend mode="normal" in2="BackgroundImageFix" result="effect1_dropShadow_36_20513"/>
<feBlend mode="normal" in="SourceGraphic" in2="effect1_dropShadow_36_20513" result="shape"/>
</filter>
<linearGradient id="paint0_linear_36_20513" x1="62" y1="8" x2="121.513" y2="25.3271" gradientUnits="userSpaceOnUse">
<stop stop-color="#4EF0F0"/>
<stop offset="1" stop-color="#05C580"/>
</linearGradient>
<linearGradient id="paint1_linear_36_20513" x1="62.8958" y1="11.8889" x2="114.687" y2="11.859" gradientUnits="userSpaceOnUse">
<stop stop-color="#AE67FA"/>
<stop offset="0.973958" stop-color="#F49867"/>
</linearGradient>
<linearGradient id="paint2_linear_36_20513" x1="20" y1="29" x2="21.2864" y2="39.6037" gradientUnits="userSpaceOnUse">
<stop stop-color="#AE68FA"/>
<stop offset="1" stop-color="#F1966E"/>
</linearGradient>
</defs>
</svg>
