<svg xmlns="http://www.w3.org/2000/svg" fill="none" viewBox="50 25 475 580">
<rect x="50" y="25" width="475" height="580" rx="25" fill="#ECEEFF"/>
<mask id="mask0_36_20231" style="mask-type:alpha" maskUnits="userSpaceOnUse" x="50" y="25" width="475" height="580">
<rect x="50" y="25" width="475" height="580" rx="25" fill="#E8F3FB"/>
</mask>
<g mask="url(#mask0_36_20231)">
<path fill-rule="evenodd" clip-rule="evenodd" d="M407.368 -93.6317C407.058 -93.9516 406.939 -94.4108 407.055 -94.8409C407.281 -95.6815 406.611 -96.4941 405.743 -96.4232C405.644 -96.4151 405.545 -96.407 405.446 -96.3987C405.003 -96.3618 404.566 -96.5245 404.256 -96.8439L400.762 -100.451C398.633 -102.648 395.127 -102.704 392.929 -100.575C389.53 -97.2822 385.988 -93.6582 381.406 -92.4756C370.174 -89.5767 359.966 -85.1756 350.691 -78.8902C330.584 -65.2641 316.589 -43.9543 305.289 -14.7085C293.626 15.477 290.589 53.4807 289.6 88.3721C289.231 101.413 289.139 113.891 289.054 125.554C288.903 146.188 288.77 164.269 287.15 178.402C284.916 197.891 275.68 208.607 265.47 212.241C255.122 215.923 239.433 213.879 221.299 198.487L220.894 198.143C200.807 181.093 167.706 152.996 130.983 136.966C100.012 123.447 64.4271 117.769 31.7334 136.115C30.7218 136.683 29.9883 137.647 29.6867 138.767L22.4763 165.543C21.896 167.698 27.0067 170.077 28.6435 168.56C56.1644 143.055 88.4031 145.082 121.192 159.395C154.344 173.866 185.013 199.788 205.462 217.145C227.824 236.125 252.487 242.836 273.674 235.297C294.998 227.71 308.478 207.23 311.464 181.19C313.225 165.83 313.385 145.396 313.556 123.69L313.556 123.689L313.556 123.687L313.556 123.685L313.556 123.685C313.645 112.312 313.737 100.59 314.063 89.0651C315.048 54.3205 318.098 20.0415 328.117 -5.88819C338.499 -32.7576 350.081 -48.9135 364.42 -58.631C373.999 -65.1222 385.578 -69.2634 400.366 -71.2444C400.575 -71.2725 400.749 -71.4235 400.804 -71.6275C400.89 -71.9466 401.246 -72.1074 401.541 -71.9596C414.416 -65.517 428.319 -57.8666 441.876 -49.2465C451.255 -43.2831 460.333 -36.9409 468.711 -30.3103L407.368 -93.6317ZM4.72654 250.645C4.98218 241.556 5.6305 232.519 6.77459 223.853L-3.54009 262.157C-4.48774 265.677 -9.11868 265.643 -9.59704 262.03C-9.78358 260.621 -10.7921 259.33 -12.1591 258.94L-19.8004 256.762C-30.0039 253.854 -40.0651 261.908 -38.2812 272.367C-35.2206 290.312 -29.4552 306.308 -20.0833 320.582C-3.78963 345.4 22.0038 362.885 57.5444 377.218C94.227 392.011 140.619 396.403 183.243 398.234C199.175 398.919 214.423 399.254 228.675 399.567C253.89 400.12 275.986 400.605 293.229 402.838C317.007 405.917 329.939 417.396 334.197 429.94C338.512 442.652 335.734 461.79 316.599 483.677L316.171 484.166C294.974 508.41 260.045 548.361 239.797 592.957C222.721 630.566 215.145 673.954 236.982 714.238C237.658 715.485 238.824 716.399 240.187 716.787L272.783 726.078C275.406 726.826 278.404 720.622 276.579 718.595C245.901 684.504 248.955 645.14 267.033 605.323C285.312 565.065 317.54 528.047 339.119 503.365C362.715 476.376 371.357 446.353 362.523 420.325C353.63 394.128 328.843 377.288 297.071 373.173C278.331 370.747 253.36 370.185 226.835 369.589L226.834 369.589L226.832 369.589L226.83 369.589L226.824 369.589C212.928 369.276 198.605 368.954 184.528 368.349C142.082 366.525 100.243 362.184 68.7322 349.476C44.9729 339.895 28.1574 329.638 16.2835 317.943C10.122 311.874 6.98979 303.511 6.21332 294.898C5.01078 281.559 4.2886 266.218 4.72654 250.645ZM562.601 571.159C558.916 581.109 546.176 583.054 538.794 575.433C534.458 570.957 533.329 564.339 535.384 558.456C539.944 545.399 541.745 533.502 541.085 522.02C539.872 500.882 530.173 478.605 508.479 450.874C487.544 424.114 453.481 399.434 417.634 376.632C405.745 369.07 393.502 361.629 381.624 354.411L381.619 354.407L381.617 354.406L381.615 354.405C358.942 340.626 337.597 327.654 322.581 316.183C297.123 296.734 284.076 269.756 289.474 242.622C294.836 215.664 317.332 193.985 351.262 182.409C382.291 171.824 428.71 155.879 464.669 130.154C500.234 104.71 522.561 72.1471 513.037 27.2847C512.471 24.6164 518.169 20.7431 520.067 22.7023L543.65 47.0461C544.637 48.0644 545.189 49.4386 545.151 50.8559C543.921 96.6617 515.666 130.449 482.073 154.482C442.241 182.978 392.015 200.112 361.535 210.51L360.92 210.72C333.405 220.107 321.431 235.292 318.811 248.459C316.227 261.45 321.687 277.857 340.74 292.413C354.557 302.968 373.45 314.436 395.01 327.523L395.015 327.527C407.2 334.923 420.236 342.835 433.689 351.393C469.687 374.291 507.668 401.29 532.039 432.443C555.652 462.626 569.247 490.665 570.949 520.305C571.928 537.353 568.923 554.089 562.601 571.159ZM343.765 746.31C354.336 747.863 365.368 748.817 376.472 749.292C394.227 750.051 411.754 749.572 427.284 748.504C438.619 747.724 447.641 758.343 444.526 769.27C443.687 772.212 440.623 773.918 437.68 773.079L343.765 746.31Z" fill="white"/>
</g>
</svg>