<svg xmlns="http://www.w3.org/2000/svg" fill="none" viewBox="63 7.74 200 75.96">
<g filter="url(#filter0_d_36_20641)">
<rect x="63" y="7.74316" width="200" height="75.9613" rx="10" fill="white"/>
</g>
<path d="M181 45.7237C181 50.4951 179.103 55.0713 175.728 58.4453C172.352 61.819 167.774 63.7146 163 63.7146C158.226 63.7146 153.648 61.819 150.272 58.4453C146.896 55.0713 145 50.4951 145 45.7237C145 40.9523 146.896 36.3762 150.272 33.0023C153.648 29.6284 158.226 27.7329 163 27.7329C167.774 27.7329 172.352 29.6284 175.728 33.0023C179.103 36.3762 181 40.9523 181 45.7237Z" fill="url(#paint0_linear_36_20641)"/>
<g filter="url(#filter1_d_36_20641)">
<path d="M156.699 58.2073C156.699 59.3947 159.518 59.2058 162.999 59.2058C166.478 59.2058 169.299 59.3947 169.299 58.2073C169.299 56.777 166.478 55.8438 162.999 55.8438C159.518 55.8438 156.699 56.777 156.699 58.2073Z" fill="#222222"/>
</g>
<path d="M156.699 58.2073C156.699 59.3947 159.518 59.2058 162.999 59.2058C166.478 59.2058 169.299 59.3947 169.299 58.2073C169.299 56.777 166.478 55.8438 162.999 55.8438C159.518 55.8438 156.699 56.777 156.699 58.2073Z" fill="url(#paint1_linear_36_20641)"/>
<path d="M153.098 49.8416C153.098 48.0628 154.308 46.6235 155.798 46.6235C157.29 46.6235 158.498 48.0628 158.498 49.8416C158.498 50.5815 158.289 51.2652 157.931 51.8072C157.764 52.0568 157.508 52.2335 157.215 52.3019C156.878 52.3829 156.376 52.4706 155.798 52.4706C155.22 52.4706 154.716 52.3829 154.38 52.3019C154.087 52.2342 153.832 52.0572 153.665 51.8072C153.288 51.2213 153.091 50.5381 153.098 49.8416ZM167.498 49.8416C167.498 48.0628 168.706 46.6235 170.198 46.6235C171.687 46.6235 172.898 48.0628 172.898 49.8416C172.898 50.5815 172.686 51.2652 172.331 51.8072C172.164 52.0572 171.908 52.2342 171.615 52.3019C171.151 52.413 170.675 52.4695 170.198 52.4706C169.62 52.4706 169.118 52.3829 168.78 52.3019C168.487 52.2335 168.231 52.0568 168.063 51.8072C167.688 51.2207 167.491 50.5377 167.498 49.8416Z" fill="url(#paint2_linear_36_20641)"/>
<g filter="url(#filter2_i_36_20641)">
<path d="M153.098 49.8416C153.098 48.0628 154.308 46.6235 155.798 46.6235C157.29 46.6235 158.498 48.0628 158.498 49.8416C158.498 50.5815 158.289 51.2652 157.931 51.8072C157.764 52.0568 157.508 52.2335 157.215 52.3019C156.878 52.3829 156.376 52.4706 155.798 52.4706C155.22 52.4706 154.716 52.3829 154.38 52.3019C154.087 52.2342 153.832 52.0572 153.665 51.8072C153.288 51.2213 153.091 50.5381 153.098 49.8416ZM167.498 49.8416C167.498 48.0628 168.706 46.6235 170.198 46.6235C171.687 46.6235 172.898 48.0628 172.898 49.8416C172.898 50.5815 172.686 51.2652 172.331 51.8072C172.164 52.0572 171.908 52.2342 171.615 52.3019C171.151 52.413 170.675 52.4695 170.198 52.4706C169.62 52.4706 169.118 52.3829 168.78 52.3019C168.487 52.2335 168.231 52.0568 168.063 51.8072C167.688 51.2207 167.491 50.5377 167.498 49.8416Z" fill="#222222"/>
</g>
<path d="M156.181 48.7198C156.192 48.7723 156.197 48.8259 156.197 48.8796C156.197 49.3318 155.801 49.7031 155.31 49.7031C154.822 49.7031 154.426 49.3318 154.426 48.8796C154.426 48.6928 154.493 48.5196 154.606 48.3823C155.11 48.5016 155.639 48.6163 156.181 48.7198ZM169.514 49.7031C169.04 49.7031 168.653 49.3588 168.63 48.9201C169.213 48.8346 169.791 48.7288 170.354 48.6141C170.385 48.6998 170.4 48.7906 170.399 48.8818C170.399 49.3318 170.005 49.7031 169.514 49.7031Z" fill="#4F4F67"/>
<g filter="url(#filter3_d_36_20641)">
<path d="M165.249 44.8244C165.249 43.8214 165.616 43.4751 166.25 43.4751C166.88 43.4751 167.182 44.0958 167.389 45.8724C169.927 45.8724 174.224 44.6715 174.638 44.6715C175.039 44.6715 175.262 44.8626 175.352 45.2719C175.43 45.6272 175.3 45.9646 174.854 46.1715C173.457 46.8169 169.358 48.2741 165.89 48.2741C165.512 48.2741 165.249 48.0807 165.249 47.5972V44.8244ZM158.609 45.8724C158.816 44.0958 159.118 43.4751 159.748 43.4751C160.382 43.4751 160.749 43.8214 160.749 44.8244V47.5972C160.749 48.0807 160.486 48.2741 160.108 48.2741C156.641 48.2741 152.541 46.8169 151.144 46.1715C150.698 45.9646 150.568 45.6272 150.647 45.2719C150.739 44.8626 150.962 44.6715 151.36 44.6715C151.774 44.6715 156.071 45.8724 158.609 45.8724Z" fill="#222222"/>
</g>
<path d="M165.249 44.8244C165.249 43.8214 165.616 43.4751 166.25 43.4751C166.88 43.4751 167.182 44.0958 167.389 45.8724C169.927 45.8724 174.224 44.6715 174.638 44.6715C175.039 44.6715 175.262 44.8626 175.352 45.2719C175.43 45.6272 175.3 45.9646 174.854 46.1715C173.457 46.8169 169.358 48.2741 165.89 48.2741C165.512 48.2741 165.249 48.0807 165.249 47.5972V44.8244ZM158.609 45.8724C158.816 44.0958 159.118 43.4751 159.748 43.4751C160.382 43.4751 160.749 43.8214 160.749 44.8244V47.5972C160.749 48.0807 160.486 48.2741 160.108 48.2741C156.641 48.2741 152.541 46.8169 151.144 46.1715C150.698 45.9646 150.568 45.6272 150.647 45.2719C150.739 44.8626 150.962 44.6715 151.36 44.6715C151.774 44.6715 156.071 45.8724 158.609 45.8724Z" fill="url(#paint3_linear_36_20641)"/>
<path d="M123 45.7237C123 50.4951 121.103 55.0713 117.728 58.4453C114.352 61.819 109.774 63.7146 105 63.7146C100.226 63.7146 95.6477 61.819 92.2721 58.4453C88.8964 55.0713 87 50.4951 87 45.7237C87 40.9523 88.8964 36.3762 92.2721 33.0023C95.6477 29.6284 100.226 27.7329 105 27.7329C109.774 27.7329 114.352 29.6284 117.728 33.0023C121.103 36.3762 123 40.9523 123 45.7237Z" fill="url(#paint4_linear_36_20641)"/>
<path d="M99.697 52.2183C99.3415 56.3675 101.33 59.2168 105 59.2168C108.668 59.2168 110.659 56.3675 110.303 52.2183C109.95 48.0669 107.795 45.7236 105 45.7236C102.206 45.7236 100.05 48.0669 99.697 52.2183Z" fill="url(#paint5_linear_36_20641)"/>
<path d="M94.875 40.1018C94.875 38.2397 96.1328 36.7285 97.6875 36.7285C99.2422 36.7285 100.5 38.2397 100.5 40.1018C100.5 41.9661 99.2422 43.4751 97.6875 43.4751C96.1328 43.4751 94.875 41.9661 94.875 40.1018ZM109.5 40.1018C109.5 38.2397 110.76 36.7285 112.312 36.7285C113.867 36.7285 115.125 38.2397 115.125 40.1018C115.125 41.9661 113.867 43.4751 112.312 43.4751C110.76 43.4751 109.5 41.9661 109.5 40.1018Z" fill="url(#paint6_linear_36_20641)"/>
<g filter="url(#filter4_i_36_20641)">
<path d="M94.875 40.1018C94.875 38.2397 96.1328 36.7285 97.6875 36.7285C99.2422 36.7285 100.5 38.2397 100.5 40.1018C100.5 41.9661 99.2422 43.4751 97.6875 43.4751C96.1328 43.4751 94.875 41.9661 94.875 40.1018ZM109.5 40.1018C109.5 38.2397 110.76 36.7285 112.312 36.7285C113.867 36.7285 115.125 38.2397 115.125 40.1018C115.125 41.9661 113.867 43.4751 112.312 43.4751C110.76 43.4751 109.5 41.9661 109.5 40.1018Z" fill="#222222"/>
</g>
<path d="M97.0847 38.0044C97.5032 38.0988 97.7372 38.5711 97.6067 39.0591C97.4785 39.5494 97.0352 39.8687 96.6167 39.7742C96.1982 39.6798 95.9642 39.2075 96.0947 38.7173C96.223 38.2315 96.6662 37.9077 97.0847 38.0044ZM112.065 38.1461C112.529 38.2518 112.79 38.7758 112.646 39.3155C112.502 39.8619 112.011 40.215 111.546 40.1116C111.082 40.0081 110.821 39.4819 110.965 38.9399C111.107 38.3957 111.6 38.0404 112.068 38.1461H112.065Z" fill="#4E506A"/>
<g filter="url(#filter5_d_36_20641)">
<path d="M111.902 31.5463C112.019 31.5351 112.136 31.5306 112.255 31.5306C113.351 31.5306 114.482 31.9893 115.342 32.7944C115.497 32.9421 115.589 33.1441 115.598 33.3579C115.607 33.5718 115.533 33.7809 115.391 33.9413C115.323 34.02 115.239 34.0841 115.145 34.1296C115.051 34.1751 114.949 34.2012 114.845 34.2062C114.741 34.2113 114.636 34.1952 114.539 34.1589C114.441 34.1227 114.351 34.067 114.275 33.9953C113.657 33.4129 112.799 33.0958 112.043 33.1655C111.781 33.1851 111.526 33.2619 111.297 33.3905C111.068 33.5191 110.869 33.6964 110.716 33.9099C110.654 33.9935 110.576 34.064 110.487 34.1171C110.398 34.1703 110.299 34.205 110.196 34.2193C110.093 34.2335 109.988 34.227 109.888 34.2001C109.787 34.1732 109.693 34.1266 109.611 34.0628C109.443 33.9293 109.333 33.7358 109.305 33.5231C109.277 33.3104 109.333 33.0951 109.46 32.9226C109.744 32.5307 110.109 32.2048 110.53 31.9672C110.952 31.7297 111.419 31.5861 111.902 31.5463ZM94.6553 32.7944C95.4895 32.0015 96.5912 31.5504 97.7423 31.5306C98.2861 31.5188 98.8246 31.6393 99.3114 31.8818C99.7983 32.1243 100.219 32.4815 100.537 32.9226C100.664 33.095 100.72 33.31 100.692 33.5226C100.664 33.7351 100.556 33.9287 100.388 34.0628C100.306 34.1266 100.212 34.1734 100.111 34.2003C100.011 34.2272 99.9057 34.2337 99.8025 34.2194C99.6994 34.2052 99.6001 34.1705 99.5106 34.1173C99.4211 34.0641 99.3431 33.9936 99.2813 33.9099C99.1277 33.6965 98.9293 33.5193 98.7 33.3907C98.4707 33.2621 98.216 33.1853 97.9538 33.1655C97.2 33.0958 96.3405 33.4129 95.7218 33.9953C95.646 34.067 95.5564 34.1227 95.4586 34.1589C95.3607 34.1952 95.2565 34.2113 95.1523 34.2062C95.048 34.2012 94.9458 34.1751 94.8519 34.1296C94.758 34.0841 94.6743 34.02 94.6058 33.9413C94.464 33.7809 94.39 33.5718 94.3992 33.3579C94.4085 33.1441 94.5002 32.9421 94.6553 32.7944Z" fill="#222222"/>
</g>
<path d="M111.902 31.5463C112.019 31.5351 112.136 31.5306 112.255 31.5306C113.351 31.5306 114.482 31.9893 115.342 32.7944C115.497 32.9421 115.589 33.1441 115.598 33.3579C115.607 33.5718 115.533 33.7809 115.391 33.9413C115.323 34.02 115.239 34.0841 115.145 34.1296C115.051 34.1751 114.949 34.2012 114.845 34.2062C114.741 34.2113 114.636 34.1952 114.539 34.1589C114.441 34.1227 114.351 34.067 114.275 33.9953C113.657 33.4129 112.799 33.0958 112.043 33.1655C111.781 33.1851 111.526 33.2619 111.297 33.3905C111.068 33.5191 110.869 33.6964 110.716 33.9099C110.654 33.9935 110.576 34.064 110.487 34.1171C110.398 34.1703 110.299 34.205 110.196 34.2193C110.093 34.2335 109.988 34.227 109.888 34.2001C109.787 34.1732 109.693 34.1266 109.611 34.0628C109.443 33.9293 109.333 33.7358 109.305 33.5231C109.277 33.3104 109.333 33.0951 109.46 32.9226C109.744 32.5307 110.109 32.2048 110.53 31.9672C110.952 31.7297 111.419 31.5861 111.902 31.5463ZM94.6553 32.7944C95.4895 32.0015 96.5912 31.5504 97.7423 31.5306C98.2861 31.5188 98.8246 31.6393 99.3114 31.8818C99.7983 32.1243 100.219 32.4815 100.537 32.9226C100.664 33.095 100.72 33.31 100.692 33.5226C100.664 33.7351 100.556 33.9287 100.388 34.0628C100.306 34.1266 100.212 34.1734 100.111 34.2003C100.011 34.2272 99.9057 34.2337 99.8025 34.2194C99.6994 34.2052 99.6001 34.1705 99.5106 34.1173C99.4211 34.0641 99.3431 33.9936 99.2813 33.9099C99.1277 33.6965 98.9293 33.5193 98.7 33.3907C98.4707 33.2621 98.216 33.1853 97.9538 33.1655C97.2 33.0958 96.3405 33.4129 95.7218 33.9953C95.646 34.067 95.5564 34.1227 95.4586 34.1589C95.3607 34.1952 95.2565 34.2113 95.1523 34.2062C95.048 34.2012 94.9458 34.1751 94.8519 34.1296C94.758 34.0841 94.6743 34.02 94.6058 33.9413C94.464 33.7809 94.39 33.5718 94.3992 33.3579C94.4085 33.1441 94.5002 32.9421 94.6553 32.7944Z" fill="url(#paint7_linear_36_20641)"/>
<path d="M221 27.7329C216.226 27.7329 211.648 29.6284 208.272 33.0023C204.896 36.3762 203 40.9523 203 45.7237C203 50.4951 204.896 55.0713 208.272 58.4453C211.648 61.819 216.226 63.7146 221 63.7146C225.774 63.7146 230.352 61.819 233.728 58.4453C237.103 55.0713 239 50.4951 239 45.7237C239 40.9523 237.103 36.3762 233.728 33.0023C230.352 29.6284 225.774 27.7329 221 27.7329Z" fill="url(#paint8_linear_36_20641)"/>
<path d="M226.566 36.7285C221.621 36.7285 221.002 40.8304 221.002 40.8304C221.002 40.8304 220.386 36.7285 215.44 36.7285C210.684 36.7285 209.298 41.7255 209.878 44.3971C211.408 51.4585 221.002 56.406 221.002 56.406C221.002 56.406 230.598 51.4585 232.128 44.3971C232.707 41.7255 231.318 36.7285 226.566 36.7285Z" fill="#3E4581"/>
<defs>
<filter id="filter0_d_36_20641" x="0" y="0.743164" width="326" height="201.961" filterUnits="userSpaceOnUse" color-interpolation-filters="sRGB">
<feFlood flood-opacity="0" result="BackgroundImageFix"/>
<feColorMatrix in="SourceAlpha" type="matrix" values="0 0 0 0 0 0 0 0 0 0 0 0 0 0 0 0 0 0 127 0" result="hardAlpha"/>
<feOffset dy="56"/>
<feGaussianBlur stdDeviation="31.5"/>
<feColorMatrix type="matrix" values="0 0 0 0 0 0 0 0 0 0 0 0 0 0 0 0 0 0 0.22 0"/>
<feBlend mode="normal" in2="BackgroundImageFix" result="effect1_dropShadow_36_20641"/>
<feBlend mode="normal" in="SourceGraphic" in2="effect1_dropShadow_36_20641" result="shape"/>
</filter>
<filter id="filter1_d_36_20641" x="155.699" y="55.8438" width="14.5996" height="5.37305" filterUnits="userSpaceOnUse" color-interpolation-filters="sRGB">
<feFlood flood-opacity="0" result="BackgroundImageFix"/>
<feColorMatrix in="SourceAlpha" type="matrix" values="0 0 0 0 0 0 0 0 0 0 0 0 0 0 0 0 0 0 127 0" result="hardAlpha"/>
<feOffset dy="1"/>
<feGaussianBlur stdDeviation="0.5"/>
<feColorMatrix type="matrix" values="0 0 0 0 1 0 0 0 0 0.509681 0 0 0 0 0 0 0 0 0.371207 0"/>
<feBlend mode="normal" in2="BackgroundImageFix" result="effect1_dropShadow_36_20641"/>
<feBlend mode="normal" in="SourceGraphic" in2="effect1_dropShadow_36_20641" result="shape"/>
</filter>
<filter id="filter2_i_36_20641" x="153.098" y="46.6235" width="19.7998" height="5.84717" filterUnits="userSpaceOnUse" color-interpolation-filters="sRGB">
<feFlood flood-opacity="0" result="BackgroundImageFix"/>
<feBlend mode="normal" in="SourceGraphic" in2="BackgroundImageFix" result="shape"/>
<feColorMatrix in="SourceAlpha" type="matrix" values="0 0 0 0 0 0 0 0 0 0 0 0 0 0 0 0 0 0 127 0" result="hardAlpha"/>
<feOffset/>
<feGaussianBlur stdDeviation="0.5"/>
<feComposite in2="hardAlpha" operator="arithmetic" k2="-1" k3="1"/>
<feColorMatrix type="matrix" values="0 0 0 0 0.0387428 0 0 0 0 0.0406183 0 0 0 0 0.0875053 0 0 0 1 0"/>
<feBlend mode="normal" in2="shape" result="effect1_innerShadow_36_20641"/>
</filter>
<filter id="filter3_d_36_20641" x="150.525" y="43.4751" width="24.948" height="5.49883" filterUnits="userSpaceOnUse" color-interpolation-filters="sRGB">
<feFlood flood-opacity="0" result="BackgroundImageFix"/>
<feColorMatrix in="SourceAlpha" type="matrix" values="0 0 0 0 0 0 0 0 0 0 0 0 0 0 0 0 0 0 127 0" result="hardAlpha"/>
<feOffset dy="0.6"/>
<feGaussianBlur stdDeviation="0.05"/>
<feColorMatrix type="matrix" values="0 0 0 0 0.565875 0 0 0 0 0.151272 0 0 0 0 0 0 0 0 0.15024 0"/>
<feBlend mode="normal" in2="BackgroundImageFix" result="effect1_dropShadow_36_20641"/>
<feBlend mode="normal" in="SourceGraphic" in2="effect1_dropShadow_36_20641" result="shape"/>
</filter>
<filter id="filter4_i_36_20641" x="94.875" y="36.7285" width="20.25" height="6.74658" filterUnits="userSpaceOnUse" color-interpolation-filters="sRGB">
<feFlood flood-opacity="0" result="BackgroundImageFix"/>
<feBlend mode="normal" in="SourceGraphic" in2="BackgroundImageFix" result="shape"/>
<feColorMatrix in="SourceAlpha" type="matrix" values="0 0 0 0 0 0 0 0 0 0 0 0 0 0 0 0 0 0 127 0" result="hardAlpha"/>
<feOffset/>
<feGaussianBlur stdDeviation="0.5"/>
<feComposite in2="hardAlpha" operator="arithmetic" k2="-1" k3="1"/>
<feColorMatrix type="matrix" values="0 0 0 0 0.0980392 0 0 0 0 0.101961 0 0 0 0 0.2 0 0 0 0.819684 0"/>
<feBlend mode="normal" in2="shape" result="effect1_innerShadow_36_20641"/>
</filter>
<filter id="filter5_d_36_20641" x="91.3984" y="29.5298" width="27.2002" height="8.69678" filterUnits="userSpaceOnUse" color-interpolation-filters="sRGB">
<feFlood flood-opacity="0" result="BackgroundImageFix"/>
<feColorMatrix in="SourceAlpha" type="matrix" values="0 0 0 0 0 0 0 0 0 0 0 0 0 0 0 0 0 0 127 0" result="hardAlpha"/>
<feOffset dy="1"/>
<feGaussianBlur stdDeviation="1.5"/>
<feColorMatrix type="matrix" values="0 0 0 0 0.803922 0 0 0 0 0.388235 0 0 0 0 0.00392157 0 0 0 0.145679 0"/>
<feBlend mode="normal" in2="BackgroundImageFix" result="effect1_dropShadow_36_20641"/>
<feBlend mode="normal" in="SourceGraphic" in2="effect1_dropShadow_36_20641" result="shape"/>
</filter>
<linearGradient id="paint0_linear_36_20641" x1="163" y1="27.7329" x2="163" y2="51.9103" gradientUnits="userSpaceOnUse">
<stop stop-color="#E04300"/>
<stop offset="1" stop-color="#FFA320"/>
</linearGradient>
<linearGradient id="paint1_linear_36_20641" x1="162.999" y1="56.3003" x2="162.999" y2="59.217" gradientUnits="userSpaceOnUse">
<stop stop-color="#3D0D00"/>
<stop offset="1" stop-color="#661C04"/>
</linearGradient>
<linearGradient id="paint2_linear_36_20641" x1="162.999" y1="46.6227" x2="162.999" y2="52.4697" gradientUnits="userSpaceOnUse">
<stop stop-color="#191A33"/>
<stop offset="0.872" stop-color="#3B426A"/>
</linearGradient>
<linearGradient id="paint3_linear_36_20641" x1="171.134" y1="48.7217" x2="171.134" y2="43.4751" gradientUnits="userSpaceOnUse">
<stop stop-color="#9A2F00"/>
<stop offset="1" stop-color="#D44800"/>
</linearGradient>
<linearGradient id="paint4_linear_36_20641" x1="105" y1="31.421" x2="105" y2="63.7146" gradientUnits="userSpaceOnUse">
<stop stop-color="#FEEA70"/>
<stop offset="1" stop-color="#F69B30"/>
</linearGradient>
<linearGradient id="paint5_linear_36_20641" x1="105" y1="45.7236" x2="105" y2="59.2168" gradientUnits="userSpaceOnUse">
<stop stop-color="#472315"/>
<stop offset="1" stop-color="#8B3A0E"/>
</linearGradient>
<linearGradient id="paint6_linear_36_20641" x1="105" y1="36.7285" x2="105" y2="43.4751" gradientUnits="userSpaceOnUse">
<stop stop-color="#191A33"/>
<stop offset="0.872" stop-color="#3B426A"/>
</linearGradient>
<linearGradient id="paint7_linear_36_20641" x1="104.998" y1="31.5287" x2="104.998" y2="34.2273" gradientUnits="userSpaceOnUse">
<stop stop-color="#E78E0D"/>
<stop offset="1" stop-color="#CB6000"/>
</linearGradient>
<linearGradient id="paint8_linear_36_20641" x1="221" y1="27.7329" x2="221" y2="63.7146" gradientUnits="userSpaceOnUse">
<stop stop-color="#FF6680"/>
<stop offset="1" stop-color="#E61739"/>
</linearGradient>
</defs>
</svg>