<svg width="75" height="35" viewBox="0 0 75 35" fill="none" xmlns="http://www.w3.org/2000/svg">
<path d="M23.0644 10.2856H12.9746C12.4012 10.2856 11.8512 10.5133 11.4458 10.9186C11.0403 11.3239 10.8125 11.8735 10.8125 12.4466V22.5313C10.8125 23.1044 11.0403 23.6541 11.4458 24.0594C11.8512 24.4646 12.4012 24.6923 12.9746 24.6923H23.0644C23.6378 24.6923 24.1878 24.4646 24.5932 24.0594C24.9987 23.6541 25.2265 23.1044 25.2265 22.5313V12.4466C25.2265 11.8735 24.9987 11.3239 24.5932 10.9186C24.1878 10.5133 23.6378 10.2856 23.0644 10.2856ZM23.0644 11.7263C23.2555 11.7263 23.4388 11.8022 23.574 11.9373C23.7092 12.0724 23.7851 12.2556 23.7851 12.4466V16.7686H18.7402V11.7263H23.0644ZM12.2539 12.4466C12.2539 12.2556 12.3298 12.0724 12.465 11.9373C12.6001 11.8022 12.7835 11.7263 12.9746 11.7263H17.2988V16.7686H12.2539V12.4466ZM12.9746 23.2516C12.7835 23.2516 12.6001 23.1757 12.465 23.0406C12.3298 22.9056 12.2539 22.7223 12.2539 22.5313V18.2093H17.2988V23.2516H12.9746ZM23.7851 22.5313C23.7851 22.7223 23.7092 22.9056 23.574 23.0406C23.4388 23.1757 23.2555 23.2516 23.0644 23.2516H18.7402V18.2093H23.7851V22.5313Z" fill="url(#paint0_linear_36_20616)"/>
<path d="M34.6851 17.4888C34.6851 26.6882 27.2237 34.1462 18.019 34.1462C8.81427 34.1462 1.35278 26.6882 1.35278 17.4888C1.35278 8.28931 8.81427 0.831297 18.019 0.831297C27.2237 0.831297 34.6851 8.28931 34.6851 17.4888Z" stroke="#55608B" stroke-width="0.900875"/>
<path d="M58.3468 11.0065C58.3468 10.6086 58.0366 10.2861 57.6538 10.2861C57.2711 10.2861 56.9609 10.6086 56.9609 11.0065V18.3437L55.6491 16.9801C55.3784 16.6988 54.9397 16.6988 54.669 16.9801C54.3984 17.2614 54.3984 17.7175 54.669 17.9988L57.1638 20.592C57.2376 20.6688 57.324 20.7246 57.4161 20.7595C57.4902 20.7876 57.5703 20.803 57.6538 20.803C57.762 20.803 57.8644 20.7772 57.9557 20.7313C57.9977 20.7101 58.0382 20.6842 58.0763 20.6537C58.1023 20.6329 58.1268 20.6102 58.1497 20.5859L60.6385 17.9988C60.9091 17.7175 60.9091 17.2614 60.6385 16.9801C60.3679 16.6988 59.9291 16.6988 59.6585 16.9801L58.3468 18.3435V11.0065Z" fill="url(#paint1_linear_36_20616)"/>
<path d="M52.0406 20.0106C52.4234 20.0106 52.7336 20.3331 52.7336 20.731V22.6758C52.7336 22.8287 52.792 22.9753 52.896 23.0833C53 23.1914 53.141 23.2521 53.288 23.2521H62.0196C62.1666 23.2521 62.3076 23.1914 62.4116 23.0833C62.5155 22.9753 62.5739 22.8287 62.5739 22.6758V20.731C62.5739 20.3331 62.8842 20.0106 63.2669 20.0106C63.6496 20.0106 63.9599 20.3331 63.9599 20.731V22.6758C63.9599 23.2108 63.7555 23.7238 63.3916 24.102C63.0277 24.4803 62.5342 24.6928 62.0196 24.6928H53.288C52.7734 24.6928 52.2799 24.4803 51.916 24.102C51.5521 23.7238 51.3477 23.2108 51.3477 22.6758V20.731C51.3477 20.3331 51.6579 20.0106 52.0406 20.0106Z" fill="url(#paint2_linear_36_20616)"/>
<path d="M74.3219 17.4888C74.3219 26.6882 66.8604 34.1462 57.6557 34.1462C48.451 34.1462 40.9895 26.6882 40.9895 17.4888C40.9895 8.28931 48.451 0.831297 57.6557 0.831297C66.8604 0.831297 74.3219 8.28931 74.3219 17.4888Z" stroke="#55608B" stroke-width="0.900875"/>
<defs>
<linearGradient id="paint0_linear_36_20616" x1="10.8125" y1="10.2856" x2="27.9674" y2="15.2829" gradientUnits="userSpaceOnUse">
<stop stop-color="#AE68FA"/>
<stop offset="1" stop-color="#F1966E"/>
</linearGradient>
<linearGradient id="paint1_linear_36_20616" x1="51.3477" y1="10.2861" x2="66.6386" y2="14.1836" gradientUnits="userSpaceOnUse">
<stop stop-color="#AE68FA"/>
<stop offset="1" stop-color="#F1966E"/>
</linearGradient>
<linearGradient id="paint2_linear_36_20616" x1="51.3477" y1="10.2861" x2="66.6386" y2="14.1836" gradientUnits="userSpaceOnUse">
<stop stop-color="#AE68FA"/>
<stop offset="1" stop-color="#F1966E"/>
</linearGradient>
</defs>
</svg>
