<svg width="88" height="13" viewBox="0 0 88 13" fill="none" xmlns="http://www.w3.org/2000/svg">
<path d="M3.89782 12V6.53514H5.67481L5.93895 4.39547H3.89782V3.03259C3.89782 2.41516 4.06363 1.99243 4.91774 1.99243H6V0.0847928C5.47342 0.0262443 4.94412 -0.00202566 4.41453 0.000112795C2.84383 0.000112795 1.76542 0.994936 1.76542 2.82122V4.39147H0V6.53114H1.76928V12H3.89782Z" fill="#3E4581"/>
<path d="M40.9954 2.91345C40.1781 2.91345 39.3944 3.23809 38.8166 3.81594C38.2387 4.3938 37.9141 5.17754 37.9141 5.99475C37.9141 6.81196 38.2387 7.5957 38.8166 8.17356C39.3944 8.75141 40.1781 9.07605 40.9954 9.07605C41.8126 9.07605 42.5963 8.75141 43.1742 8.17356C43.752 7.5957 44.0767 6.81196 44.0767 5.99475C44.0767 5.17754 43.752 4.3938 43.1742 3.81594C42.5963 3.23809 41.8126 2.91345 40.9954 2.91345ZM40.9954 7.99586C40.4645 7.99586 39.9553 7.78496 39.5799 7.40955C39.2045 7.03415 38.9936 6.52499 38.9936 5.99408C38.9936 5.46318 39.2045 4.95402 39.5799 4.57861C39.9553 4.20321 40.4645 3.99231 40.9954 3.99231C41.5263 3.99231 42.0354 4.20321 42.4108 4.57861C42.7862 4.95402 42.9971 5.46318 42.9971 5.99408C42.9971 6.52499 42.7862 7.03415 42.4108 7.40955C42.0354 7.78496 41.5263 7.99586 40.9954 7.99586Z" fill="#3E4581"/>
<path d="M44.1988 3.51855C44.5955 3.51855 44.9171 3.19698 44.9171 2.80029C44.9171 2.40361 44.5955 2.08203 44.1988 2.08203C43.8021 2.08203 43.4805 2.40361 43.4805 2.80029C43.4805 3.19698 43.8021 3.51855 44.1988 3.51855Z" fill="#3E4581"/>
<path d="M46.6821 2.06973C46.5279 1.67136 46.2921 1.3096 45.99 1.00758C45.6879 0.70557 45.326 0.469968 44.9276 0.315857C44.4614 0.140841 43.9688 0.0462065 43.4709 0.0359836C42.8292 0.00799631 42.6259 0 40.9987 0C39.3714 0 39.1628 -6.70249e-08 38.5264 0.0359836C38.0289 0.0456838 37.5367 0.140337 37.0711 0.315857C36.6725 0.469788 36.3106 0.705327 36.0084 1.00736C35.7063 1.3094 35.4706 1.67126 35.3165 2.06973C35.1415 2.53593 35.0471 3.02852 35.0373 3.5264C35.0087 4.16745 35 4.37069 35 5.99862C35 7.62588 35 7.83312 35.0373 8.47083C35.0473 8.96927 35.1413 9.46105 35.3165 9.92817C35.471 10.3265 35.7069 10.6882 36.0092 10.9902C36.3114 11.2922 36.6733 11.5278 37.0717 11.682C37.5365 11.8641 38.0289 11.9655 38.5278 11.9819C39.1695 12.0099 39.3727 12.0186 41 12.0186C42.6273 12.0186 42.8359 12.0186 43.4722 11.9819C43.9701 11.9718 44.4626 11.8774 44.9289 11.7027C45.3272 11.5482 45.689 11.3124 45.9911 11.0103C46.2932 10.7082 46.529 10.3465 46.6835 9.94816C46.8587 9.4817 46.9527 8.98993 46.9627 8.49149C46.9913 7.85044 47 7.6472 47 6.01927C47 4.39134 47 4.18477 46.9627 3.54706C46.9549 3.04214 46.86 2.54235 46.6821 2.06973ZM45.8705 8.42152C45.8662 8.80555 45.7961 9.186 45.6633 9.54634C45.5632 9.80547 45.41 10.0408 45.2135 10.2371C45.017 10.4335 44.7816 10.5866 44.5224 10.6865C44.1661 10.8187 43.7897 10.8888 43.4096 10.8937C42.7765 10.9231 42.598 10.9304 40.9747 10.9304C39.3501 10.9304 39.1841 10.9304 38.5391 10.8937C38.1592 10.8891 37.783 10.819 37.4269 10.6865C37.1668 10.5872 36.9305 10.4344 36.7332 10.238C36.5358 10.0416 36.3819 9.80597 36.2814 9.54634C36.1505 9.18987 36.0804 8.8139 36.0742 8.43418C36.0455 7.80113 36.0389 7.62255 36.0389 5.99928C36.0389 4.37535 36.0389 4.20943 36.0742 3.56372C36.0785 3.17991 36.1486 2.79968 36.2814 2.43956C36.4847 1.9138 36.9012 1.49999 37.4269 1.29874C37.7832 1.1669 38.1593 1.09681 38.5391 1.09151C39.1728 1.06285 39.3507 1.05486 40.9747 1.05486C42.5986 1.05486 42.7652 1.05486 43.4096 1.09151C43.7897 1.09608 44.1662 1.16619 44.5224 1.29874C44.7816 1.39888 45.017 1.5521 45.2134 1.74856C45.4099 1.94502 45.5631 2.18039 45.6633 2.43956C45.7942 2.79603 45.8643 3.172 45.8705 3.55172C45.8992 4.18544 45.9065 4.36336 45.9065 5.98729C45.9065 7.61055 45.9065 7.78514 45.8778 8.42218H45.8705V8.42152Z" fill="#3E4581"/>
<path d="M87.7355 3.415C87.6616 3.14357 87.517 2.89602 87.3162 2.69701C87.1154 2.498 86.8654 2.35447 86.5911 2.28069C85.5739 2.0045 81.5045 2 81.5045 2C81.5045 2 77.4358 1.99551 76.4179 2.2595C76.1438 2.33667 75.8943 2.48223 75.6934 2.68222C75.4926 2.88221 75.347 3.1299 75.2709 3.40152C75.0026 4.40737 75 6.49358 75 6.49358C75 6.49358 74.9974 8.59006 75.2637 9.58564C75.4131 10.1361 75.8515 10.5709 76.4089 10.7193C77.4364 10.9955 81.4948 11 81.4948 11C81.4948 11 85.5641 11.0045 86.5813 10.7411C86.8557 10.6675 87.106 10.5243 87.3073 10.3257C87.5086 10.1271 87.6539 9.87996 87.729 9.60876C87.998 8.60355 87.9999 6.51798 87.9999 6.51798C87.9999 6.51798 88.0129 4.42086 87.7355 3.415ZM80.2028 8.42628L80.2061 4.57244L83.5882 6.50257L80.2028 8.42628Z" fill="#3E4581"/>
</svg>
